<svg width="20.856567" height="20.856567" viewBox="0 0 20.8566 20.8566" fill="none" xmlns="http://www.w3.org/2000/svg" xmlns:xlink="http://www.w3.org/1999/xlink">
	<desc>
			Created with Pixso.
	</desc>
	<defs/>
	<path id="Vector" d="M6.7 12.91C6.4 13.52 6.27 14.04 6.26 14.07C6.22 14.26 6.29 14.45 6.45 14.54C6.54 14.6 8.6 15.84 10.32 15.14C10.46 15.08 10.59 15.02 10.72 14.95C9.26 14.58 7.89 13.82 6.7 12.91Z" fill="#78C0DE" fill-opacity="1.000000" fill-rule="nonzero"/>
	<path id="Vector" d="M6.73 7.34C6.74 7.34 6.89 7.46 7.08 7.65C8.68 6.52 10.55 5.67 12.51 5.67C12.95 5.67 13.38 5.69 13.82 5.75C13.6 5.34 13.22 4.92 12.62 4.52C11.45 3.74 9.92 4.33 8.73 5.09C7.6 5.8 6.73 6.66 6.7 6.69C6.52 6.88 6.53 7.18 6.73 7.34Z" fill="#78C0DE" fill-opacity="1.000000" fill-rule="nonzero"/>
	<path id="Vector" d="M5.51 11.9C5.33 11.73 5.06 11.48 4.9 11.29C4.46 10.8 4.46 10.05 4.9 9.56C5.01 9.43 5.24 9.2 5.51 8.94C5.04 8.59 4.46 8.04 3.92 7.23C3.77 7 3.45 6.97 3.26 7.16C2.61 7.81 2.26 8.59 2.28 9.3C2.31 10.04 2.31 10.8 2.28 11.55C2.26 12.26 2.61 13.04 3.26 13.68C3.45 13.88 3.77 13.84 3.92 13.62C4.46 12.8 5.04 12.26 5.51 11.9Z" fill="#78C0DE" fill-opacity="1.000000" fill-rule="nonzero"/>
	<path id="Vector" d="M15.34 13.67C14.04 12.17 14.03 8.69 15.34 7.18C15.36 7.16 15.35 7.17 15.54 6.98C14.53 6.68 13.51 6.53 12.51 6.53C10.3 6.53 8.14 7.78 6.49 9.23C6.07 9.59 5.71 9.94 5.54 10.14C5.39 10.3 5.39 10.55 5.54 10.71C5.91 11.12 6.67 11.83 7.49 12.42C8.75 13.33 10.2 14.07 11.73 14.26C11.73 14.26 12 14.31 12.54 14.31C13.53 14.31 14.54 14.16 15.53 13.88L15.34 13.67Z" fill="#78C0DE" fill-opacity="1.000000" fill-rule="nonzero"/>
	<path id="Vector" d="M19.84 11.4C20.04 11.14 20.23 10.81 20.25 10.48C20.3 9.75 19.5 9.01 18.91 8.58C18.18 8.04 17.3 7.6 16.46 7.28L15.99 7.76C14.97 8.95 14.98 11.93 16 13.1L16.42 13.59C17.58 13.15 19.07 12.37 19.84 11.4ZM16.7 10.06C16.63 9.84 16.75 9.59 16.99 9.52C17.21 9.45 17.48 9.58 17.53 9.85C17.56 9.96 17.54 10.07 17.47 10.17C17.26 10.48 16.8 10.4 16.7 10.06Z" fill="#78C0DE" fill-opacity="1.000000" fill-rule="nonzero"/>
</svg>
