<svg width="14.000000" height="14.000000" viewBox="0 0 14 14" fill="none" xmlns="http://www.w3.org/2000/svg" xmlns:xlink="http://www.w3.org/1999/xlink">
	<desc>
			Created with Pixso.
	</desc>
	<defs/>
	<path id="Vector" d="M11.66 1.75C11.66 1.42 11.4 1.16 11.08 1.16L9.33 1.16L9.33 0L8.16 0L8.16 1.16L6.41 1.16L6.41 0L5.25 0L5.25 1.16L3.5 1.16L3.5 0L2.33 0L2.33 1.16L0.58 1.16C0.26 1.16 0 1.42 0 1.75L0 2.91L11.66 2.91L11.66 1.75Z" fill="#FFBD54" fill-opacity="1.000000" fill-rule="nonzero"/>
	<path id="Vector" d="M9.32 6.58C9.7 6.47 10.1 6.41 10.5 6.41C10.89 6.41 11.28 6.47 11.66 6.58L11.66 3.5L0 3.5L0 11.08C0 11.4 0.26 11.66 0.58 11.66L6.58 11.66C5.94 9.5 7.16 7.23 9.32 6.58ZM8.16 4.66L9.33 4.66L9.33 5.83L8.16 5.83L8.16 4.66ZM5.25 4.66L6.41 4.66L6.41 5.83L5.25 5.83L5.25 4.66ZM3.5 10.5L2.33 10.5L2.33 9.33L3.5 9.33L3.5 10.5ZM3.5 8.16L2.33 8.16L2.33 7L3.5 7L3.5 8.16ZM3.5 5.83L2.33 5.83L2.33 4.66L3.5 4.66L3.5 5.83ZM5.25 7L6.41 7L6.41 8.16L5.25 8.16L5.25 7Z" fill="#FFBD54" fill-opacity="1.000000" fill-rule="nonzero"/>
	<path id="Vector" d="M10.5 7C8.56 7 7 8.56 7 10.5C7 12.43 8.56 14 10.5 14C12.43 14 14 12.43 14 10.5C13.99 8.56 12.43 7 10.5 7ZM10.91 10.91C10.75 11.06 10.52 11.12 10.31 11.05L8.56 10.47L8.93 9.36L10.34 9.82L11.83 8.33L12.66 9.15L10.91 10.91Z" fill="#FFBD54" fill-opacity="1.000000" fill-rule="nonzero"/>
</svg>
